<?xml version="1.0" encoding="utf-8"?>
<!-- Generator: Adobe Illustrator 22.0.1, SVG Export Plug-In . SVG Version: 6.00 Build 0)  -->
<svg version="1.1" id="Layer_1" xmlns="http://www.w3.org/2000/svg" xmlns:xlink="http://www.w3.org/1999/xlink" x="0px" y="0px"
	 viewBox="0 0 517.1 90.7" style="enable-background:new 0 0 517.1 90.7;" xml:space="preserve">
<style type="text/css">
	.st0{fill:#46404C;}
	.st1{fill:#6A5E77;}
</style>
<path class="st0" d="M113.9,50.4v-9.8c0-22.3-21.7-40.4-48.4-40.4c-26.8,0-48.4,18.1-48.4,40.4v9.8c-10,4.3-16.1,9.9-16.1,16
	c0,13.4,28.9,24.2,64.6,24.2s64.6-10.8,64.6-24.2C130.1,60.2,124,54.6,113.9,50.4z"/>
<g>
	<path class="st1" d="M182.2,29.9l5-0.2l11.1,31.1l4.2,1v3h-14.5v-3l4.6-1l-1.9-5.5h-13l-1.9,5.5l4.7,1v3h-13.8v-3l4.1-1L182.2,29.9
		z M184.3,36.1L179,51.1h10.3L184.3,36.1z"/>
	<path class="st1" d="M217.8,64.6h-13.9v-2.8l4.3-1.2V30.1l-4.3-1v-2.8l9.4-0.2v34.5l4.5,1.2V64.6z"/>
	<path class="st1" d="M224.8,35.4c0-6,3.2-9.8,9.3-9.8c4.8,0,7.5,1.8,7.5,1.8v6.3H238l-0.8-4c0,0-1.2-0.2-3-0.2c-3.5,0-4.5,2-4.5,5
		v4h6.6l-0.2,3.8h-6.5v18.5l5,1.2v2.8h-14.3v-2.8l4.3-1.2V42.1h-4.5v-3.2l4.5-0.5V35.4z"/>
	<path class="st1" d="M249.5,41.8c1.3-1.4,4.2-4.1,7.6-4.1c2.5,0,4.5,0.8,4.5,0.8l-0.2,7.3H258l-0.8-3.8c-3.7,0-6.2,2.5-7.2,3.9
		v14.9l5,1.2v2.8h-14.3v-2.8l4.2-1.2V42.1l-4.2-1v-2.8l8.3-0.2L249.5,41.8z"/>
	<path class="st1" d="M269.3,52.1c0,5.5,3,9,7.3,9c5,0,8.4-2.8,8.4-2.8l1.8,2.6c0,0-4.7,4.2-10.7,4.2c-8,0-12-5.2-12-13.5
		c0-8,5-14,12.3-14c7.2,0,10.5,4.2,10.5,11.8c0,1.2-0.2,2.7-0.2,2.8H269.3z M281.5,48.4c0-3.8-1.5-6.9-5.5-6.9s-6.3,3.1-6.6,6.9
		H281.5z"/>
	<path class="st1" d="M319,64.4l-8.5,0.2l-0.4-2.9c-1.5,1.5-4.1,3.4-7.9,3.4c-7.3,0-10.5-5.2-10.5-13c0-8.5,4.2-14.5,13.3-14.5
		c1.8,0,3.5,0.3,4.8,0.8v-8.3l-4.2-1v-2.8l9.3-0.2v34.5l4.2,1V64.4z M309.8,42.6c0,0-1.8-1-5.2-1c-5.8,0-7.5,4.5-7.5,10
		c0,5.5,1.8,9.5,6.3,9.5c4.2,0,6.5-3.8,6.5-3.8V42.6z"/>
	<path class="st1" d="M338.3,61.6l5-1v-27h-6.5l-1.2,5h-3.2v-9h27.3v9h-3.2l-1.3-5h-6.5v27l5,1v3h-15.3V61.6z"/>
	<path class="st1" d="M370.5,41.2c1.5-1.3,5-3.6,8.8-3.6c5.5,0,8,3.5,8,9v14l3.8,1.2v2.8h-12v-2.8l3.2-1.2V47.1
		c0-3.5-1.1-5.3-4.3-5.3c-4.3,0-7.4,4-7.4,4v14.8l3.2,1.2v2.8h-12.5v-2.8l4.2-1.2V30.1l-4.2-1v-2.8l9.3-0.2V41.2z"/>
	<path class="st1" d="M399.8,52.1c0,5.5,3,9,7.3,9c5,0,8.4-2.8,8.4-2.8l1.8,2.6c0,0-4.7,4.2-10.7,4.2c-8,0-12-5.2-12-13.5
		c0-8,5-14,12.3-14c7.2,0,10.5,4.2,10.5,11.8c0,1.2-0.2,2.7-0.2,2.8H399.8z M412,48.4c0-3.8-1.5-6.9-5.5-6.9s-6.3,3.1-6.6,6.9H412z"
		/>
	<path class="st1" d="M430.2,41.7c1.2-1.1,5-4.1,9.1-4.1c3.6,0,5.8,1.7,7,4.3c0.7-0.7,4.7-4.3,9.3-4.3c5.5,0,7.8,3.5,7.8,9v14
		l3.8,1.2v2.8h-12v-2.8l3.2-1.2V47.1c0-3.5-1-5.3-4.2-5.3c-4.2,0-7,4-7,4v14.8l3.2,1.2v2.8h-11.5v-2.8l3.2-1.2V47.1
		c0-3.5-1-5.3-4.2-5.3c-4.2,0-7,4-7,4v14.8l3.2,1.2v2.8h-12.5v-2.8l4.2-1.2V42.1l-4.2-1v-2.8l8.3-0.2L430.2,41.7z"/>
	<path class="st1" d="M475.8,52.1c0,5.5,3,9,7.3,9c5,0,8.4-2.8,8.4-2.8l1.8,2.6c0,0-4.7,4.2-10.7,4.2c-8,0-12-5.2-12-13.5
		c0-8,5-14,12.3-14c7.2,0,10.5,4.2,10.5,11.8c0,1.2-0.2,2.7-0.2,2.8H475.8z M488,48.4c0-3.8-1.5-6.9-5.5-6.9s-6.3,3.1-6.6,6.9H488z"
		/>
	<path class="st1" d="M501.9,60.9c0,0,1.5,0.5,4.2,0.5c3,0,5.7-0.9,5.7-4c0-5.4-14-2.9-14-12c0-5.2,4-7.8,9.2-7.8
		c4,0,8.6,1.5,8.6,1.5l-0.2,6.8h-3.2l-0.8-3.9c0,0-1.5-0.6-4-0.6c-2.6,0-4.5,0.8-4.5,3.4c0,5.4,14,3.3,14,11.9c0,5.8-5,8.5-11,8.5
		c-4.6,0-7.9-1.1-7.9-1.1v-7.4h3.5L501.9,60.9z"/>
</g>
</svg>
